<svg width="150" height="150" viewBox="0 0 150 150" fill="none" xmlns="http://www.w3.org/2000/svg">
<path d="M77.6291 12.5292C86.4535 12.5292 93.8468 13.0062 99.8092 13.9602C105.891 14.7949 110.78 15.8682 114.477 17.1799C118.412 18.7301 121.095 20.5188 122.526 22.546C124.076 24.5733 124.851 26.8986 124.851 29.522C124.851 33.338 123.361 36.4384 120.379 38.8234C117.518 41.2083 113.105 42.4008 107.143 42.4008C103.089 42.4008 98.736 41.9834 94.0853 41.1487C89.4347 40.314 84.6648 39.0619 79.7756 37.3924L82.1009 34.8882C83.1742 41.0891 84.1281 47.9458 84.9629 55.4585C85.7976 62.9711 86.5131 70.6029 87.1093 78.354C87.8248 85.9859 88.3018 93.2004 88.5403 99.9975C88.8981 106.795 89.0769 112.578 89.0769 117.348C89.0769 126.649 87.8844 133.625 85.4995 138.276C83.2338 142.927 79.2986 145.252 73.6939 145.252C68.5663 145.252 64.8696 143.165 62.6039 138.992C60.3382 134.699 59.2053 128.2 59.2053 119.495C59.2053 113.771 59.4438 107.212 59.9208 99.8187C60.5171 92.4253 61.2922 84.7934 62.2462 76.9231C63.2001 69.0527 64.2137 61.5401 65.287 54.3852C66.4795 47.1111 67.6719 40.791 68.8644 35.4248L72.0841 37.3924C69.4607 38.3464 66.3602 39.3004 62.7828 40.2544C59.2053 41.0891 55.6279 41.8046 52.0505 42.4008C48.473 42.8778 45.313 43.1163 42.5703 43.1163C36.4886 43.1163 32.1957 42.1623 29.6915 40.2544C27.1873 38.2271 25.9352 35.5441 25.9352 32.2051C25.9352 29.1047 26.8892 26.4812 28.7971 24.3348C30.7051 22.0691 33.6267 20.1015 37.5618 18.432C42.0933 16.524 47.6383 15.0931 54.1969 14.1391C60.8748 13.0658 68.6855 12.5292 77.6291 12.5292Z" fill="black"/>
</svg>
