<svg width="285" height="136" viewBox="0 0 285 136" fill="none" xmlns="http://www.w3.org/2000/svg">
<g clip-path="url(#clip0_49_23)">
<path d="M77.904 102.136C77.904 98.04 78.288 95.096 79.056 93.304C79.824 91.4693 80.912 90.552 82.32 90.552C83.4293 90.552 84.304 91.0213 84.944 91.96C85.584 92.856 86.0533 93.9867 86.352 95.352C86.6507 96.6747 86.8 98.0187 86.8 99.384L86.48 99.256C87.2053 96.952 88.3147 94.968 89.808 93.304C91.344 91.64 93.1787 90.808 95.312 90.808C97.8293 90.808 99.6853 91.8533 100.88 93.944C102.075 95.992 102.672 98.552 102.672 101.624C102.672 105.72 102.203 108.579 101.264 110.2C100.325 111.821 99.0667 112.632 97.488 112.632C96.336 112.632 95.4827 112.163 94.928 111.224C94.416 110.285 94.2453 108.621 94.416 106.232C94.5867 103.715 94.4373 101.965 93.968 100.984C93.4987 100.003 92.752 99.512 91.728 99.512C90.4907 99.512 89.4667 100.301 88.656 101.88C87.888 103.416 87.504 105.315 87.504 107.576C87.504 108.472 87.6107 109.603 87.824 110.968C88.0373 112.333 88.272 113.827 88.528 115.448C88.784 117.027 89.0187 118.605 89.232 120.184C89.4453 121.763 89.552 123.213 89.552 124.536C89.552 126.883 89.1893 128.568 88.464 129.592C87.7387 130.616 86.7147 131.128 85.392 131.128C83.8987 131.128 82.7467 130.659 81.936 129.72C81.1253 128.739 80.5067 127.16 80.08 124.984C79.7387 123.021 79.3973 120.696 79.056 118.008C78.7147 115.32 78.4373 112.568 78.224 109.752C78.0107 106.936 77.904 104.397 77.904 102.136ZM113.974 81.912C115.68 81.912 116.896 82.3813 117.622 83.32C118.39 84.2587 118.774 85.3467 118.774 86.584C118.774 88.12 118.304 89.3147 117.366 90.168C116.47 90.9787 115.19 91.384 113.526 91.384C111.904 91.384 110.688 90.936 109.878 90.04C109.067 89.1013 108.661 88.0133 108.661 86.776C108.661 85.1547 109.152 83.9387 110.134 83.128C111.115 82.3173 112.395 81.912 113.974 81.912ZM114.358 96.184C115.723 96.184 116.79 97.464 117.558 100.024C118.368 102.584 118.774 106.659 118.774 112.248C118.774 119.117 118.283 124.067 117.302 127.096C116.32 130.125 114.827 131.64 112.822 131.64C111.286 131.64 110.155 130.531 109.43 128.312C108.704 126.051 108.342 122.125 108.342 116.536C108.342 109.667 108.896 104.568 110.006 101.24C111.158 97.8693 112.608 96.184 114.358 96.184ZM133.12 91.192C134.485 91.192 135.402 91.7467 135.872 92.856C136.384 93.9653 136.64 95.608 136.64 97.784C136.64 98.296 136.597 98.8507 136.512 99.448C136.469 100.003 136.384 100.515 136.256 100.984L136.128 99.704C137.152 96.9307 138.73 94.776 140.864 93.24C142.997 91.6613 145.258 90.872 147.648 90.872C150.293 90.872 152.49 91.6187 154.24 93.112C156.032 94.6053 157.354 96.696 158.208 99.384C159.104 102.072 159.552 105.251 159.552 108.92C159.552 111.181 159.445 113.421 159.232 115.64C159.061 117.816 158.805 119.821 158.464 121.656C158.165 123.448 157.824 124.92 157.44 126.072C156.928 127.523 156.266 128.611 155.456 129.336C154.645 130.019 153.685 130.36 152.576 130.36C151.466 130.36 150.613 129.955 150.016 129.144C149.418 128.333 149.12 127.245 149.12 125.88C149.12 124.429 149.226 122.68 149.44 120.632C149.653 118.541 149.845 116.429 150.016 114.296C150.229 112.12 150.336 110.157 150.336 108.408C150.336 102.435 148.373 99.448 144.448 99.448C142.357 99.448 140.608 100.387 139.2 102.264C137.792 104.099 136.853 106.723 136.384 110.136C136.256 111.288 136.192 112.717 136.192 114.424C136.192 116.131 136.192 117.837 136.192 119.544C136.234 121.208 136.192 122.616 136.064 123.768C135.893 126.328 135.402 128.163 134.592 129.272C133.824 130.381 132.757 130.936 131.392 130.936C129.813 130.936 128.618 130.211 127.808 128.76C126.997 127.267 126.592 124.771 126.592 121.272C126.592 119.48 126.634 117.475 126.72 115.256C126.805 113.037 126.912 110.819 127.04 108.6C127.21 106.339 127.402 104.291 127.616 102.456C128.042 99 128.661 96.2693 129.472 94.264C130.282 92.216 131.498 91.192 133.12 91.192ZM171.694 131.64C170.883 131.64 170.222 131.405 169.71 130.936C169.198 130.424 168.835 129.699 168.622 128.76C168.28 127.181 167.982 124.899 167.726 121.912C167.47 118.925 167.342 115.619 167.342 111.992C167.342 107.512 167.491 103.203 167.79 99.064C168.131 94.9253 168.558 91.5333 169.07 88.888C169.624 86.0293 170.307 83.9387 171.118 82.616C171.928 81.2507 172.995 80.568 174.318 80.568C175.512 80.568 176.43 81.1227 177.07 82.232C177.71 83.2987 178.03 85.1547 178.03 87.8C178.03 90.4453 177.923 93.2827 177.71 96.312C177.539 99.3413 177.24 102.584 176.814 106.04H177.07C179.843 102.285 182.424 99.2773 184.814 97.016C187.246 94.7547 189.464 93.112 191.47 92.088C193.518 91.064 195.331 90.552 196.91 90.552C198.147 90.552 199.064 90.936 199.662 91.704C200.259 92.472 200.558 93.4107 200.558 94.52C200.558 96.696 198.808 99.128 195.31 101.816C191.854 104.504 186.862 107.256 180.333 110.072L180.398 109.048C184.451 111.139 187.928 113.336 190.83 115.64C193.774 117.901 196.014 120.056 197.55 122.104C199.128 124.109 199.918 125.795 199.918 127.16C199.918 128.269 199.555 129.187 198.83 129.912C198.147 130.595 197.144 130.936 195.822 130.936C194.158 130.936 192.302 130.317 190.254 129.08C188.248 127.8 186.158 125.901 183.982 123.384C181.806 120.867 179.63 117.709 177.454 113.912H177.198C177.155 116.6 176.984 119.224 176.686 121.784C176.43 124.301 176.088 126.371 175.662 127.992C175.363 129.101 174.894 129.997 174.254 130.68C173.656 131.32 172.803 131.64 171.694 131.64ZM208.661 113.528C206.869 113.528 205.546 113.208 204.693 112.568C203.839 111.885 203.413 111.011 203.413 109.944C203.413 108.92 203.797 108.109 204.565 107.512C205.333 106.872 206.613 106.317 208.405 105.848C210.154 105.379 212.159 105.059 214.421 104.888C216.682 104.717 218.73 104.632 220.565 104.632C222.783 104.632 224.362 104.952 225.301 105.592C226.239 106.232 226.709 107.085 226.709 108.152C226.709 109.347 226.303 110.285 225.493 110.968C224.725 111.608 223.594 112.099 222.101 112.44C220.906 112.653 219.477 112.845 217.812 113.016C216.191 113.187 214.549 113.315 212.885 113.4C211.263 113.485 209.855 113.528 208.661 113.528Z" fill="black"/>
<path d="M261.017 130.616C259.865 130.616 258.969 130.232 258.329 129.464C257.731 128.653 257.326 127.629 257.113 126.392C256.899 125.112 256.793 123.768 256.793 122.36L257.113 122.104C256.686 123.939 255.854 125.517 254.617 126.84C253.379 128.163 251.95 129.187 250.329 129.912C248.707 130.595 247.086 130.936 245.465 130.936C243.289 130.936 241.305 130.424 239.513 129.4C237.721 128.376 236.334 126.797 235.353 124.664C234.371 122.403 233.603 119.565 233.049 116.152C232.494 112.696 232.217 109.155 232.217 105.528C232.217 103.565 232.302 101.752 232.473 100.088C232.643 98.424 232.921 97.0587 233.305 95.992C233.646 94.8827 234.158 94.072 234.841 93.56C235.523 93.0053 236.398 92.728 237.465 92.728C238.702 92.728 239.662 93.2187 240.345 94.2C241.07 95.1387 241.518 96.4613 241.689 98.168C241.859 99.576 241.966 101.325 242.009 103.416C242.094 105.464 242.158 107.533 242.201 109.624C242.286 111.672 242.393 113.4 242.521 114.808C242.777 117.368 243.438 119.267 244.505 120.504C245.571 121.699 246.873 122.296 248.409 122.296C250.67 122.296 252.398 121.443 253.593 119.736C254.787 118.029 255.385 115.64 255.385 112.568C255.385 111.032 255.299 109.304 255.129 107.384C254.958 105.421 254.766 103.523 254.553 101.688C254.382 99.8533 254.297 98.3387 254.297 97.144C254.297 95.1387 254.638 93.7093 255.321 92.856C256.003 91.96 256.942 91.512 258.137 91.512C259.161 91.512 260.014 91.7893 260.697 92.344C261.422 92.8987 261.998 93.6667 262.425 94.648C263.022 95.928 263.534 97.6773 263.961 99.896C264.387 102.115 264.729 104.632 264.985 107.448C265.241 110.264 265.369 113.229 265.369 116.344C265.369 121.123 265.049 124.707 264.409 127.096C263.769 129.443 262.638 130.616 261.017 130.616ZM278.786 81.912C280.493 81.912 281.709 82.3813 282.434 83.32C283.202 84.2587 283.586 85.3467 283.586 86.584C283.586 88.12 283.117 89.3147 282.178 90.168C281.282 90.9787 280.002 91.384 278.338 91.384C276.717 91.384 275.501 90.936 274.69 90.04C273.879 89.1013 273.474 88.0133 273.474 86.776C273.474 85.1547 273.965 83.9387 274.946 83.128C275.927 82.3173 277.207 81.912 278.786 81.912ZM279.17 96.184C280.535 96.184 281.602 97.464 282.37 100.024C283.181 102.584 283.586 106.659 283.586 112.248C283.586 119.117 283.095 124.067 282.114 127.096C281.133 130.125 279.639 131.64 277.634 131.64C276.098 131.64 274.967 130.531 274.242 128.312C273.517 126.051 273.154 122.125 273.154 116.536C273.154 109.667 273.709 104.568 274.818 101.24C275.97 97.8693 277.421 96.184 279.17 96.184Z" fill="#338EF7"/>
<path d="M52.6291 0.529228C61.4535 0.529228 68.8468 1.00622 74.8092 1.96019C80.8909 2.79493 85.78 3.86816 89.4767 5.17989C93.4119 6.73011 96.095 8.51883 97.526 10.546C99.0762 12.5733 99.8513 14.8986 99.8513 17.522C99.8513 21.338 98.3607 24.4384 95.3795 26.8234C92.5175 29.2083 88.1054 30.4008 82.143 30.4008C78.0886 30.4008 73.736 29.9834 69.0853 29.1487C64.4347 28.314 59.6648 27.0619 54.7756 25.3924L57.1009 22.8882C58.1742 29.0891 59.1281 35.9458 59.9629 43.4585C60.7976 50.9711 61.5131 58.6029 62.1093 66.354C62.8248 73.9859 63.3018 81.2004 63.5403 87.9975C63.8981 94.7947 64.0769 100.578 64.0769 105.348C64.0769 114.649 62.8844 121.625 60.4995 126.276C58.2338 130.927 54.2986 133.252 48.6939 133.252C43.5663 133.252 39.8696 131.165 37.6039 126.992C35.3382 122.699 34.2053 116.2 34.2053 107.495C34.2053 101.771 34.4438 95.212 34.9208 87.8187C35.5171 80.4253 36.2922 72.7934 37.2462 64.9231C38.2001 57.0527 39.2137 49.5401 40.287 42.3852C41.4795 35.1111 42.6719 28.791 43.8644 23.4248L47.0841 25.3924C44.4607 26.3464 41.3602 27.3004 37.7828 28.2544C34.2053 29.0891 30.6279 29.8046 27.0505 30.4008C23.473 30.8778 20.313 31.1163 17.5703 31.1163C11.4886 31.1163 7.19569 30.1623 4.69149 28.2544C2.18728 26.2271 0.93518 23.5441 0.93518 20.2051C0.93518 17.1047 1.88916 14.4812 3.79713 12.3348C5.70509 10.0691 8.62667 8.10147 12.5618 6.432C17.0933 4.52403 22.6383 3.09305 29.1969 2.13907C35.8748 1.06584 43.6855 0.529228 52.6291 0.529228Z" fill="black"/>
</g>
<defs>
<clipPath id="clip0_49_23">
<rect width="285" height="136" fill="white"/>
</clipPath>
</defs>
</svg>
